# Made in Blockbench 4.12.4
mtllib portableShop.mtl

o cuboid
v -0.390625 0.328125 0.40625
v -0.390625 0.328125 -0.40625
v -0.390625 0.296875 0.40625
v -0.390625 0.296875 -0.40625
v -0.546875 0.328125 0.40625
v -0.546875 0.328125 -0.40625
v -0.546875 0.296875 0.40625
v -0.546875 0.296875 -0.40625
vt 0.703125 0.5
vt 0.5 0.5
vt 0.5 0.484375
vt 0.703125 0.484375
vt 0.703125 0.453125
vt 0.703125 0.46875
vt 0.5 0.46875
vt 0.5 0.453125
vt 0.34375 0.359375
vt 0.40625 0.359375
vt 0.40625 0.5625
vt 0.34375 0.5625
vt 0.484375 0.359375
vt 0.484375 0.5625
vt 0.421875 0.5625
vt 0.421875 0.359375
vt 0.65625 0.421875
vt 0.65625 0.4375
vt 0.59375 0.4375
vt 0.59375 0.421875
vt 0.65625 0.40625
vt 0.59375 0.40625
vt 0.59375 0.390625
vt 0.65625 0.390625
vn 1 0 0
vn -1 0 0
vn 0 1 0
vn 0 -1 0
vn 0 0 1
vn 0 0 -1
usemtl m_3c8e2a98-e4f3-5773-b4c1-b00b1a7e87cd
f 2/1/1 1/2/1 3/3/1 4/4/1
f 7/5/2 5/6/2 6/7/2 8/8/2
f 5/9/3 1/10/3 2/11/3 6/12/3
f 4/13/4 3/14/4 7/15/4 8/16/4
f 3/17/5 1/18/5 5/19/5 7/20/5
f 6/21/6 2/22/6 4/23/6 8/24/6
o cuboid
v 0.390625 0.8125 0.40625
v 0.390625 0.8125 -0.40625
v 0.390625 0 0.40625
v 0.390625 0 -0.40625
v -0.390625 0.8125 0.40625
v -0.390625 0.8125 -0.40625
v -0.390625 0 0.40625
v -0.390625 0 -0.40625
v -0.390625 0.64625 0.349375
v -0.390625 0.64625 -0.349375
v -0.390625 0.3225 0.349375
v -0.390625 0.3225 -0.349375
vt 0.203125 1
vt 0 1
vt 0 0.796875
vt 0.203125 0.796875
vt 0 0.578125
vt 0.203125 0.578125
vt 0.203125 0.78125
vt 0 0.78125
vt 0.421875 0.796875
vt 0.421875 1
vt 0.21875 1
vt 0.21875 0.796875
vt 0.421875 0.578125
vt 0.421875 0.78125
vt 0.21875 0.78125
vt 0.21875 0.578125
vt 0.203125 0.5625
vt 0 0.5625
vt 0 0.359375
vt 0.203125 0.359375
vt 0.62640625 0.9584375
vt 0.62640625 0.8775
vt 0.640625 0.796875
vt 0.640625 1
vt 0.45171875 0.9584375
vt 0.62640625 0.9584375
vt 0.640625 1
vt 0.4375 1
vt 0.45171875 0.8775
vt 0.45171875 0.9584375
vt 0.4375 1
vt 0.4375 0.796875
vt 0.62640625 0.8775
vt 0.45171875 0.8775
vt 0.4375 0.796875
vt 0.640625 0.796875
vn 1 0 0
vn 0 1 0
vn 0 -1 0
vn 0 0 1
vn 0 0 -1
vn -1 0 0
vn -1 0 0
vn -1 0 0
vn -1 0 0
usemtl m_3c8e2a98-e4f3-5773-b4c1-b00b1a7e87cd
f 10/25/7 9/26/7 11/27/7 12/28/7
f 13/29/8 9/30/8 10/31/8 14/32/8
f 12/33/9 11/34/9 15/35/9 16/36/9
f 11/37/10 9/38/10 13/39/10 15/40/10
f 14/41/11 10/42/11 12/43/11 16/44/11
f 17/45/12 19/46/12 15/47/12 13/48/12
f 18/49/13 17/50/13 13/51/13 14/52/13
f 20/53/14 18/54/14 14/55/14 16/56/14
f 19/57/15 20/58/15 16/59/15 15/60/15
o cuboid
v -0.38946129637904064 0.32735943688498415 0.38125
v -0.38946129637904064 0.32735943688498415 0.36875
v -0.39867726308916723 0.3189145592897884 0.38125
v -0.39867726308916723 0.3189145592897884 0.36875
v -0.6005832362589345 0.557758604638148 0.38125
v -0.6005832362589345 0.557758604638148 0.36875
v -0.6097992029690611 0.5493137270429521 0.38125
v -0.6097992029690611 0.5493137270429521 0.36875
vt 0.546875 0.375
vt 0.53125 0.375
vt 0.53125 0.359375
vt 0.546875 0.359375
vt 0.578125 0.359375
vt 0.578125 0.375
vt 0.5625 0.375
vt 0.5625 0.359375
vt 0.5625 0.609375
vt 0.640625 0.609375
vt 0.640625 0.625
vt 0.5625 0.625
vt 0.640625 0.578125
vt 0.640625 0.59375
vt 0.5625 0.59375
vt 0.5625 0.578125
vt 0.578125 0.421875
vt 0.578125 0.4375
vt 0.5 0.4375
vt 0.5 0.421875
vt 0.578125 0.40625
vt 0.5 0.40625
vt 0.5 0.390625
vt 0.578125 0.390625
vn 0.6755902076156604 -0.7372773368101241 0
vn -0.6755902076156604 0.7372773368101241 0
vn 0.7372773368101241 0.6755902076156604 0
vn -0.7372773368101241 -0.6755902076156604 0
vn 0 0 1
vn 0 0 -1
usemtl m_3c8e2a98-e4f3-5773-b4c1-b00b1a7e87cd
f 22/61/16 21/62/16 23/63/16 24/64/16
f 27/65/17 25/66/17 26/67/17 28/68/17
f 25/69/18 21/70/18 22/71/18 26/72/18
f 24/73/19 23/74/19 27/75/19 28/76/19
f 23/77/20 21/78/20 25/79/20 27/80/20
f 26/81/21 22/82/21 24/83/21 28/84/21
o cuboid
v -0.38946129637904064 0.32735943688498415 -0.36875
v -0.38946129637904064 0.32735943688498415 -0.38125
v -0.39867726308916723 0.3189145592897884 -0.36875
v -0.39867726308916723 0.3189145592897884 -0.38125
v -0.6005832362589345 0.557758604638148 -0.36875
v -0.6005832362589345 0.557758604638148 -0.38125
v -0.6097992029690611 0.5493137270429521 -0.36875
v -0.6097992029690611 0.5493137270429521 -0.38125
vt 0.609375 0.9375
vt 0.59375 0.9375
vt 0.59375 0.921875
vt 0.609375 0.921875
vt 0.515625 0.359375
vt 0.515625 0.375
vt 0.5 0.375
vt 0.5 0.359375
vt 0.5625 0.734375
vt 0.640625 0.734375
vt 0.640625 0.75
vt 0.5625 0.75
vt 0.640625 0.703125
vt 0.640625 0.71875
vt 0.5625 0.71875
vt 0.5625 0.703125
vt 0.640625 0.671875
vt 0.640625 0.6875
vt 0.5625 0.6875
vt 0.5625 0.671875
vt 0.640625 0.65625
vt 0.5625 0.65625
vt 0.5625 0.640625
vt 0.640625 0.640625
vn 0.6755902076156604 -0.7372773368101241 0
vn -0.6755902076156604 0.7372773368101241 0
vn 0.7372773368101241 0.6755902076156604 0
vn -0.7372773368101241 -0.6755902076156604 0
vn 0 0 1
vn 0 0 -1
usemtl m_3c8e2a98-e4f3-5773-b4c1-b00b1a7e87cd
f 30/85/22 29/86/22 31/87/22 32/88/22
f 35/89/23 33/90/23 34/91/23 36/92/23
f 33/93/24 29/94/24 30/95/24 34/96/24
f 32/97/25 31/98/25 35/99/25 36/100/25
f 31/101/26 29/102/26 33/103/26 35/104/26
f 34/105/27 30/106/27 32/107/27 36/108/27
o cuboid
v -0.38125 0.65625 0.40625
v -0.38125 0.65625 -0.40625
v -0.38125 0.625 0.40625
v -0.38125 0.625 -0.40625
v -0.63125 0.578125 0.40625
v -0.63125 0.578125 -0.40625
v -0.63125 0.546875 0.40625
v -0.63125 0.546875 -0.40625
vt 0.703125 0.5625
vt 0.5 0.5625
vt 0.5 0.546875
vt 0.703125 0.546875
vt 0.703125 0.515625
vt 0.703125 0.53125
vt 0.5 0.53125
vt 0.5 0.515625
vt 0.21875 0.359375
vt 0.328125 0.359375
vt 0.328125 0.5625
vt 0.21875 0.5625
vt 0.546875 0.578125
vt 0.546875 0.78125
vt 0.4375 0.78125
vt 0.4375 0.578125
vt 0.578125 0.921875
vt 0.578125 0.9375
vt 0.46875 0.9375
vt 0.46875 0.921875
vt 0.671875 0.78125
vt 0.5625 0.78125
vt 0.5625 0.765625
vt 0.671875 0.765625
vn 1 0 0
vn -1 0 0
vn -0.2982749931359468 0.9544799780350298 0
vn 0.2982749931359468 -0.9544799780350298 0
vn 0 0 1
vn 0 0 -1
usemtl m_3c8e2a98-e4f3-5773-b4c1-b00b1a7e87cd
f 38/109/28 37/110/28 39/111/28 40/112/28
f 43/113/29 41/114/29 42/115/29 44/116/29
f 41/117/30 37/118/30 38/119/30 42/120/30
f 40/121/31 39/122/31 43/123/31 44/124/31
f 39/125/32 37/126/32 41/127/32 43/128/32
f 42/129/33 38/130/33 40/131/33 44/132/33