# Made in Blockbench 4.12.4
mtllib Tube.mtl

o tube
v 0.09210753489819841 0 0.34375
v 0.09210753489819841 4 0.34375
v 0.0786099123894501 0 0.29337618701596596
v 0.0786099123894501 4 0.29337618701596596
v 0.25164246510180155 0 0.25164246510180155
v 0.25164246510180155 4 0.25164246510180155
v 0.21476627462651585 0 0.21476627462651587
v 0.21476627462651585 4 0.21476627462651587
v 0.34375 0 0.09210753489819841
v 0.34375 4 0.09210753489819841
v 0.29337618701596596 0 0.0786099123894501
v 0.29337618701596596 4 0.0786099123894501
v 0.34375 0 -0.09210753489819845
v 0.34375 4 -0.09210753489819845
v 0.29337618701596596 0 -0.07860991238945014
v 0.29337618701596596 4 -0.07860991238945014
v 0.25164246510180155 0 -0.25164246510180155
v 0.25164246510180155 4 -0.25164246510180155
v 0.21476627462651587 0 -0.21476627462651585
v 0.21476627462651587 4 -0.21476627462651585
v 0.0921075348981985 0 -0.34374999999999994
v 0.0921075348981985 4 -0.34374999999999994
v 0.07860991238945018 0 -0.29337618701596596
v 0.07860991238945018 4 -0.29337618701596596
v -0.09210753489819827 0 -0.34375
v -0.09210753489819827 4 -0.34375
v -0.07860991238944999 0 -0.293376187015966
v -0.07860991238944999 4 -0.293376187015966
v -0.25164246510180155 0 -0.2516424651018016
v -0.25164246510180155 4 -0.2516424651018016
v -0.21476627462651585 0 -0.2147662746265159
v -0.21476627462651585 4 -0.2147662746265159
v -0.34375 0 -0.09210753489819837
v -0.34375 4 -0.09210753489819837
v -0.29337618701596596 0 -0.07860991238945007
v -0.29337618701596596 4 -0.07860991238945007
v -0.34375 0 0.09210753489819826
v -0.34375 4 0.09210753489819826
v -0.293376187015966 0 0.07860991238944996
v -0.293376187015966 4 0.07860991238944996
v -0.2516424651018016 0 0.2516424651018015
v -0.2516424651018016 4 0.2516424651018015
v -0.2147662746265159 0 0.21476627462651582
v -0.2147662746265159 4 0.21476627462651582
v -0.0921075348981984 0 0.34375
v -0.0921075348981984 4 0.34375
v -0.07860991238945009 0 0.29337618701596596
v -0.07860991238945009 4 0.29337618701596596
vt 0 -3
vt 0.1842125 -3
vt 0.1842125 1
vt 0 1
vt 0.157225 1
vt 0 1
vt 0 -3
vt 0.157225 -3
vt 5.551115123125783e-17 0.986499428540176
vt 0 0.82928153212528
vt 0.05037191927947493 0.8157833471323981
vt 0.050373172267792476 1
vt 0 0.9496269195603496
vt 0.1842166528718631 0.9496269195603495
vt 0.17071881049449905 0.9999989306494041
vt 0.013500914083239654 1
vt 0 -3
vt 0.1842125 -3
vt 0.1842125 1
vt 0 1
vt 0.157225 1
vt 0 1
vt 0 -3
vt 0.157225 -3
vt 1.1102230246251565e-16 0.9865018150071182
vt 0 0.8292839185922221
vt 0.05037317226779242 0.8157833471323981
vt 0.05037191927947504 1
vt 0 0.9496269195603497
vt 0.18421665287186306 0.9496269195603496
vt 0.1707157387886235 1
vt 0.013497842377364108 0.9999989306494043
vt 0 -3
vt 0.1842125 -3
vt 0.1842125 1
vt 0 1
vt 0.157225 1
vt 0 1
vt 0 -3
vt 0.157225 -3
vt 2.4980018054066022e-15 0.98650625
vt 2.4980018054066022e-15 0.82928125
vt 0.0503750000000025 0.8157875
vt 0.0503750000000025 1
vt 0.0503750000000025 0.8157875
vt 0.0503750000000025 1
vt 2.4980018054066022e-15 0.98650625
vt 2.4980018054066022e-15 0.82928125
vt 0 -3
vt 0.1842125 -3
vt 0.1842125 1
vt 0 1
vt 0.157225 1
vt 0 1
vt 0 -3
vt 0.157225 -3
vt 0.1707160814077779 1
vt 0.013498184992881787 1
vt 0 0.949628080720525
vt 0.1842166528676018 0.9496268277322076
vt 0.05037308043965033 0.8157833471281369
vt 0.05037308043965033 1
vt 0.0000010693505957948268 0.9865021576226359
vt 0 0.8292842612113765
vt 0 -3
vt 0.1842125 -3
vt 0.1842125 1
vt 0 1
vt 0.157225 1
vt 0 1
vt 0 -3
vt 0.157225 -3
vt 0.17071846787472 1
vt 0.01350057145982389 0.9999999999999999
vt 0 0.9496268277322075
vt 0.18421665286760183 0.9496280807205251
vt 0.050373080439650386 0.8157833471281369
vt 0.050373080439650386 1
vt 0 0.9864990859167604
vt 0.000001069350595850338 0.829281189505501
vt 0 -3
vt 0.1842125 -3
vt 0.1842125 1
vt 0 1
vt 0.157225 1
vt 0 1
vt 0 -3
vt 0.157225 -3
vt 0.17071875 0.9999999999999976
vt 0.013493749999999999 0.9999999999999976
vt 0 0.9496249999999975
vt 0.1842125 0.9496249999999975
vt 0.1842125 1
vt 0 1
vt 0.013493749999999999 0.9496249999999999
vt 0.17071875 0.9496249999999999
vt 0 -3
vt 0.1842125 -3
vt 0.1842125 1
vt 0 1
vt 0.157225 1
vt 0 1
vt 0 -3
vt 0.157225 -3
vt 0.050373172267792365 0.8292839185922221
vt 0.05037317226779231 0.9865018150071182
vt 0.0000012529883173240108 1
vt 0 0.8157833471323982
vt 0.18421665287186312 1
vt 0 0.9999999999999998
vt 0.013497842377364122 0.9496279889109454
vt 0.1707157387886235 0.9496269195603496
vt 0 -3
vt 0.1842125 -3
vt 0.1842125 1
vt 0 1
vt 0.157225 1
vt 0 1
vt 0 -3
vt 0.157225 -3
vt 0.05037317226779242 0.82928153212528
vt 0.05037317226779242 0.986499428540176
vt 0 1
vt 0.0000012529883175460554 0.8157833471323981
vt 0.1842166528718631 1
vt 0 1
vt 0.013500914083239654 0.9496269195603496
vt 0.17071881049449905 0.9496279889109455
vt 0 -3
vt 0.1842125 -3
vt 0.1842125 1
vt 0 1
vt 0.157225 1
vt 0 1
vt 0 -3
vt 0.157225 -3
vt 0.050375 0.82928125
vt 0.050375 0.98650625
vt 0 1
vt 0 0.8157875
vt 0 1
vt 0 0.8157875
vt 0.050375 0.82928125
vt 0.050375 0.98650625
vt 0 -3
vt 0.1842125 -3
vt 0.1842125 1
vt 0 1
vt 0.157225 1
vt 0 1
vt 0 -3
vt 0.157225 -3
vt 0.013500571459823918 0.9496268277322075
vt 0.17071846787472 0.9496268277322075
vt 0.18421665286760186 0.9999987470116825
vt 0 1
vt 5.551115123125783e-17 1
vt 0 0.8157833471281369
vt 0.05037201108905459 0.829281189505501
vt 0.05037308043965044 0.9864990859167604
vt 0 -3
vt 0.1842125 -3
vt 0.1842125 1
vt 0 1
vt 0.157225 1
vt 0 1
vt 0 -3
vt 0.157225 -3
vt 0.013498184992881801 0.9496268277322077
vt 0.1707160814077779 0.9496268277322075
vt 0.18421665286760186 1
vt 0 0.9999987470116827
vt 1.1102230246251565e-16 1
vt 0 0.8157833471281369
vt 0.050373080439650386 0.8292842612113764
vt 0.05037201108905465 0.9865021576226359
vt 0 -3
vt 0.1842125 -3
vt 0.1842125 1
vt 0 1
vt 0.157225 1
vt 0 1
vt 0 -3
vt 0.157225 -3
vt 0.013493749999999999 0.9496249999999999
vt 0.17071875 0.9496249999999999
vt 0.1842125 1
vt 0 1
vt 0 0.9496249999999975
vt 0.1842125 0.9496249999999975
vt 0.17071875 0.9999999999999976
vt 0.013493749999999999 0.9999999999999976
vn 0.5000000000000001 0 0.8660254037844387
vn -0.5 0 -0.8660254037844387
vn 0 -1 0
vn 0 1 0
vn 0.8660254037844387 0 0.5000000000000001
vn -0.8660254037844388 0 -0.5
vn 0 -1 0
vn 0 1 0
vn 1 0 0
vn -1 0 0
vn 0 -1 0
vn 0 1 0
vn 0.8660254037844386 0 -0.5000000000000002
vn -0.8660254037844388 0 0.5000000000000001
vn 0 -1 0
vn 0 1 0
vn 0.5000000000000001 0 -0.8660254037844386
vn -0.5000000000000002 0 0.8660254037844386
vn 0 -1 0
vn 0 1 0
vn 3.0133881713700935e-16 0 -1
vn -3.5307984415657323e-16 0 1
vn 0 -1 0
vn 0 1 0
vn -0.4999999999999996 0 -0.866025403784439
vn 0.49999999999999983 0 0.8660254037844388
vn 0 -1 0
vn 0 1 0
vn -0.8660254037844388 0 -0.49999999999999994
vn 0.8660254037844388 0 0.49999999999999983
vn 0 -1 0
vn 0 1 0
vn -1 0 0
vn 1 0 3.5307984415657357e-16
vn 0 -1 0
vn 0 1 0
vn -0.8660254037844388 0 0.4999999999999996
vn 0.8660254037844388 0 -0.49999999999999983
vn 0 -1 0
vn 0 1 0
vn -0.5000000000000001 0 0.8660254037844386
vn 0.5 0 -0.8660254037844387
vn 0 -1 0
vn 0 1 0
vn 0 0 1
vn 0 0 -1
vn 0 -1 0
vn 0 1 0
usemtl none
f 1/1/1 5/2/1 6/3/1 2/4/1
f 4/5/2 8/6/2 7/7/2 3/8/2
f 3/9/3 7/10/3 5/11/3 1/12/3
f 2/13/4 6/14/4 8/15/4 4/16/4
f 5/17/5 9/18/5 10/19/5 6/20/5
f 8/21/6 12/22/6 11/23/6 7/24/6
f 7/25/7 11/26/7 9/27/7 5/28/7
f 6/29/8 10/30/8 12/31/8 8/32/8
f 9/33/9 13/34/9 14/35/9 10/36/9
f 12/37/10 16/38/10 15/39/10 11/40/10
f 11/41/11 15/42/11 13/43/11 9/44/11
f 10/45/12 14/46/12 16/47/12 12/48/12
f 13/49/13 17/50/13 18/51/13 14/52/13
f 16/53/14 20/54/14 19/55/14 15/56/14
f 15/57/15 19/58/15 17/59/15 13/60/15
f 14/61/16 18/62/16 20/63/16 16/64/16
f 17/65/17 21/66/17 22/67/17 18/68/17
f 20/69/18 24/70/18 23/71/18 19/72/18
f 19/73/19 23/74/19 21/75/19 17/76/19
f 18/77/20 22/78/20 24/79/20 20/80/20
f 21/81/21 25/82/21 26/83/21 22/84/21
f 24/85/22 28/86/22 27/87/22 23/88/22
f 23/89/23 27/90/23 25/91/23 21/92/23
f 22/93/24 26/94/24 28/95/24 24/96/24
f 25/97/25 29/98/25 30/99/25 26/100/25
f 28/101/26 32/102/26 31/103/26 27/104/26
f 27/105/27 31/106/27 29/107/27 25/108/27
f 26/109/28 30/110/28 32/111/28 28/112/28
f 29/113/29 33/114/29 34/115/29 30/116/29
f 32/117/30 36/118/30 35/119/30 31/120/30
f 31/121/31 35/122/31 33/123/31 29/124/31
f 30/125/32 34/126/32 36/127/32 32/128/32
f 33/129/33 37/130/33 38/131/33 34/132/33
f 36/133/34 40/134/34 39/135/34 35/136/34
f 35/137/35 39/138/35 37/139/35 33/140/35
f 34/141/36 38/142/36 40/143/36 36/144/36
f 37/145/37 41/146/37 42/147/37 38/148/37
f 40/149/38 44/150/38 43/151/38 39/152/38
f 39/153/39 43/154/39 41/155/39 37/156/39
f 38/157/40 42/158/40 44/159/40 40/160/40
f 41/161/41 45/162/41 46/163/41 42/164/41
f 44/165/42 48/166/42 47/167/42 43/168/42
f 43/169/43 47/170/43 45/171/43 41/172/43
f 42/173/44 46/174/44 48/175/44 44/176/44
f 45/177/45 1/178/45 2/179/45 46/180/45
f 48/181/46 4/182/46 3/183/46 47/184/46
f 47/185/47 3/186/47 1/187/47 45/188/47
f 46/189/48 2/190/48 4/191/48 48/192/48